<?xml version="1.0" encoding="UTF-8"?>
<svg id="Layer_1" data-name="Layer 1" xmlns="http://www.w3.org/2000/svg" viewBox="0 0 16 17">
  <defs>
    <style>
      .cls-1 {
        fill: gray;
      }

      .cls-1, .cls-2, .cls-3 {
        fill-rule: evenodd;
      }

      .cls-4 {
        fill: #fff;
      }

      .cls-2 {
        fill: #dfdfdf;
      }
    </style>
  </defs>
  <path class="cls-2" d="M1,17h15s0-16,0-16h-1s0,15,0,15H1s0,1,0,1Z"/>
  <path class="cls-3" d="M0,0h16v1H1s0,16,0,16H0V0Z"/>
  <path class="cls-1" d="M1,16h1s0-14,0-14h13s0-1,0-1H1s0,15,0,15Z"/>
  <path class="cls-4" d="M15,16H2V2h13v14Z"/>
  <path class="cls-3" d="M12,7h-7v1h1v1h1v1h1v1h1v-1h1v-1h1v-1h1v-1Z"/>
</svg>